<svg xmlns="http://www.w3.org/2000/svg" version="1.1" xmlns:xlink="http://www.w3.org/1999/xlink" width="1000" height="1000"><style>
    #light-icon {
      display: inline;
    }
    #dark-icon {
      display: none;
    }

    @media (prefers-color-scheme: dark) {
      #light-icon {
        display: none;
      }
      #dark-icon {
        display: inline;
      }
    }
  </style><g id="light-icon"><svg xmlns="http://www.w3.org/2000/svg" version="1.1" xmlns:xlink="http://www.w3.org/1999/xlink" width="1000" height="1000"><g clip-path="url(#SvgjsClipPath1283)"><rect width="1000" height="1000" fill="#000000"></rect><g transform="matrix(3.5,0,0,3.5,150,150)"><svg xmlns="http://www.w3.org/2000/svg" version="1.1" xmlns:xlink="http://www.w3.org/1999/xlink" width="200" height="200"><svg xmlns="http://www.w3.org/2000/svg" version="1.1" xmlns:xlink="http://www.w3.org/1999/xlink" viewBox="0 0 200 200"><rect width="200" height="200" fill="url('#gradient')"></rect><defs><linearGradient id="gradient" gradientTransform="rotate(73 0.5 0.5)"><stop offset="0%" stop-color="#121212"></stop><stop offset="100%" stop-color="#121212"></stop></linearGradient><clipPath id="SvgjsClipPath1283"><rect width="1000" height="1000" x="0" y="0" rx="350" ry="350"></rect></clipPath></defs><g><g fill="#ffb300" transform="matrix(3.6852077269118815,0,0,3.6852077269118815,28.50755914039604,119.95543880129529)" stroke="#fffff" stroke-width="0.4"><path d="M10.73-5.36L10.73-5.21Q10.73-2.74 9.62-1.27Q8.52 0.20 6.63 0.20L6.63 0.20Q5.18 0.20 4.24-0.87L4.24-0.87L4.24 4.06L0.95 4.06L0.95-10.57L4.02-10.57L4.12-9.59Q5.07-10.76 6.61-10.76L6.61-10.76Q8.56-10.76 9.65-9.32Q10.73-7.88 10.73-5.36L10.73-5.36ZM7.44-5.06L7.44-5.41Q7.44-8.22 5.80-8.22L5.80-8.22Q4.63-8.22 4.24-7.38L4.24-7.38L4.24-3.22Q4.67-2.34 5.82-2.34L5.82-2.34Q7.39-2.34 7.44-5.06L7.44-5.06ZM15.65-10.57L15.65 0L12.35 0L12.35-10.57L15.65-10.57ZM12.16-13.29L12.16-13.29Q12.16-13.99 12.67-14.44Q13.17-14.89 13.98-14.89Q14.79-14.89 15.30-14.44Q15.81-13.99 15.81-13.29Q15.81-12.59 15.30-12.14Q14.79-11.69 13.98-11.69Q13.17-11.69 12.67-12.14Q12.16-12.59 12.16-13.29ZM22.15-2.34L22.15-2.34Q22.84-2.34 23.22-2.72Q23.60-3.10 23.59-3.77L23.59-3.77L26.68-3.77Q26.68-2.03 25.43-0.92Q24.19 0.20 22.23 0.20L22.23 0.20Q19.92 0.20 18.59-1.25Q17.27-2.70 17.27-5.25L17.27-5.25L17.27-5.39Q17.27-6.99 17.86-8.22Q18.45-9.44 19.56-10.10Q20.67-10.76 22.20-10.76L22.20-10.76Q24.26-10.76 25.47-9.62Q26.68-8.48 26.68-6.52L26.68-6.52L23.59-6.52Q23.59-7.34 23.19-7.78Q22.79-8.22 22.12-8.22L22.12-8.22Q20.84-8.22 20.63-6.59L20.63-6.59Q20.56-6.07 20.56-5.17L20.56-5.17Q20.56-3.57 20.94-2.96Q21.32-2.34 22.15-2.34ZM27.67-4.82L27.66-5.38Q27.66-6.96 28.27-8.20Q28.89-9.43 30.04-10.10Q31.19-10.76 32.74-10.76L32.74-10.76Q35.12-10.76 36.48-9.29Q37.85-7.82 37.85-5.29L37.85-5.29L37.85-5.18Q37.85-2.71 36.48-1.25Q35.11 0.20 32.76 0.20L32.76 0.20Q30.51 0.20 29.14-1.16Q27.77-2.51 27.67-4.82L27.67-4.82ZM30.96-5.77L30.95-5.18Q30.95-3.71 31.41-3.03Q31.87-2.34 32.76-2.34L32.76-2.34Q34.52-2.34 34.56-5.05L34.56-5.05L34.56-5.38Q34.56-8.22 32.74-8.22L32.74-8.22Q31.09-8.22 30.96-5.77L30.96-5.77Z"></path></g></g></svg></svg></g></g></svg></g><g id="dark-icon"><svg xmlns="http://www.w3.org/2000/svg" version="1.1" xmlns:xlink="http://www.w3.org/1999/xlink" width="1000" height="1000"><g clip-path="url(#SvgjsClipPath1284)"><rect width="1000" height="1000" fill="#000000"></rect><g transform="matrix(3.5,0,0,3.5,150,150)"><svg xmlns="http://www.w3.org/2000/svg" version="1.1" xmlns:xlink="http://www.w3.org/1999/xlink" width="200" height="200"><svg xmlns="http://www.w3.org/2000/svg" version="1.1" xmlns:xlink="http://www.w3.org/1999/xlink" viewBox="0 0 200 200"><rect width="200" height="200" fill="url('#gradient')"></rect><defs><linearGradient id="gradient" gradientTransform="rotate(73 0.5 0.5)"><stop offset="0%" stop-color="#121212"></stop><stop offset="100%" stop-color="#121212"></stop></linearGradient><clipPath id="SvgjsClipPath1284"><rect width="1000" height="1000" x="0" y="0" rx="350" ry="350"></rect></clipPath></defs><g><g fill="#ffb300" transform="matrix(3.6852077269118815,0,0,3.6852077269118815,28.50755914039604,119.95543880129529)" stroke="#fffff" stroke-width="0.4"><path d="M10.73-5.36L10.73-5.21Q10.73-2.74 9.62-1.27Q8.52 0.20 6.63 0.20L6.63 0.20Q5.18 0.20 4.24-0.87L4.24-0.87L4.24 4.06L0.95 4.06L0.95-10.57L4.02-10.57L4.12-9.59Q5.07-10.76 6.61-10.76L6.61-10.76Q8.56-10.76 9.65-9.32Q10.73-7.88 10.73-5.36L10.73-5.36ZM7.44-5.06L7.44-5.41Q7.44-8.22 5.80-8.22L5.80-8.22Q4.63-8.22 4.24-7.38L4.24-7.38L4.24-3.22Q4.67-2.34 5.82-2.34L5.82-2.34Q7.39-2.34 7.44-5.06L7.44-5.06ZM15.65-10.57L15.65 0L12.35 0L12.35-10.57L15.65-10.57ZM12.16-13.29L12.16-13.29Q12.16-13.99 12.67-14.44Q13.17-14.89 13.98-14.89Q14.79-14.89 15.30-14.44Q15.81-13.99 15.81-13.29Q15.81-12.59 15.30-12.14Q14.79-11.69 13.98-11.69Q13.17-11.69 12.67-12.14Q12.16-12.59 12.16-13.29ZM22.15-2.34L22.15-2.34Q22.84-2.34 23.22-2.72Q23.60-3.10 23.59-3.77L23.59-3.77L26.68-3.77Q26.68-2.03 25.43-0.92Q24.19 0.20 22.23 0.20L22.23 0.20Q19.92 0.20 18.59-1.25Q17.27-2.70 17.27-5.25L17.27-5.25L17.27-5.39Q17.27-6.99 17.86-8.22Q18.45-9.44 19.56-10.10Q20.67-10.76 22.20-10.76L22.20-10.76Q24.26-10.76 25.47-9.62Q26.68-8.48 26.68-6.52L26.68-6.52L23.59-6.52Q23.59-7.34 23.19-7.78Q22.79-8.22 22.12-8.22L22.12-8.22Q20.84-8.22 20.63-6.59L20.63-6.59Q20.56-6.07 20.56-5.17L20.56-5.17Q20.56-3.57 20.94-2.96Q21.32-2.34 22.15-2.34ZM27.67-4.82L27.66-5.38Q27.66-6.96 28.27-8.20Q28.89-9.43 30.04-10.10Q31.19-10.76 32.74-10.76L32.74-10.76Q35.12-10.76 36.48-9.29Q37.85-7.82 37.85-5.29L37.85-5.29L37.85-5.18Q37.85-2.71 36.48-1.25Q35.11 0.20 32.76 0.20L32.76 0.20Q30.51 0.20 29.14-1.16Q27.77-2.51 27.67-4.82L27.67-4.82ZM30.96-5.77L30.95-5.18Q30.95-3.71 31.41-3.03Q31.87-2.34 32.76-2.34L32.76-2.34Q34.52-2.34 34.56-5.05L34.56-5.05L34.56-5.38Q34.56-8.22 32.74-8.22L32.74-8.22Q31.09-8.22 30.96-5.77L30.96-5.77Z"></path></g></g></svg></svg></g></g></svg></g></svg>